<svg xmlns="http://www.w3.org/2000/svg" width="24" height="24" viewBox="0 0 24 24" fill="none"><path d="M13.8 3.8999H10.2C8.29044 3.8999 6.45909 4.65847 5.10883 6.00873C3.75857 7.359 3 9.19034 3 11.0999C3 13.0095 3.75857 14.8408 5.10883 16.1911C6.45909 17.5413 8.29044 18.2999 10.2 18.2999V21.4499C14.7 19.6499 21 16.9499 21 11.0999C21 9.19034 20.2414 7.359 18.8912 6.00873C17.5409 4.65847 15.7096 3.8999 13.8 3.8999V3.8999ZM12 16.4999H10.2C9.49086 16.4999 8.78867 16.3602 8.13351 16.0889C7.47835 15.8175 6.88306 15.4197 6.38162 14.9183C5.88019 14.4168 5.48243 13.8216 5.21105 13.1664C4.93968 12.5112 4.8 11.809 4.8 11.0999C4.8 10.3908 4.93968 9.68857 5.21105 9.03341C5.48243 8.37825 5.88019 7.78296 6.38162 7.28153C6.88306 6.78009 7.47835 6.38233 8.13351 6.11095C8.78867 5.83958 9.49086 5.6999 10.2 5.6999H13.8C15.2322 5.6999 16.6057 6.26883 17.6184 7.28153C18.6311 8.29422 19.2 9.66773 19.2 11.0999C19.2 14.3489 16.9842 16.4693 12 18.7319V16.4999Z" fill="#0E121B"></path></svg>