<svg xmlns="http://www.w3.org/2000/svg" width="18" height="18" viewBox="0 0 18 18" fill="none"><path d="M2.25 7.3123V3.5998C2.25 3.42078 2.32112 3.24909 2.4477 3.12251C2.57429 2.99592 2.74598 2.9248 2.925 2.9248H15.075C15.254 2.9248 15.4257 2.99592 15.5523 3.12251C15.6789 3.24909 15.75 3.42078 15.75 3.5998V7.3123C15.3024 7.3123 14.8732 7.49009 14.5568 7.80656C14.2403 8.12303 14.0625 8.55225 14.0625 8.9998C14.0625 9.44736 14.2403 9.87658 14.5568 10.193C14.8732 10.5095 15.3024 10.6873 15.75 10.6873V14.3998C15.75 14.5788 15.6789 14.7505 15.5523 14.8771C15.4257 15.0037 15.254 15.0748 15.075 15.0748H2.925C2.74598 15.0748 2.57429 15.0037 2.4477 14.8771C2.32112 14.7505 2.25 14.5788 2.25 14.3998V10.6873C2.69755 10.6873 3.12677 10.5095 3.44324 10.193C3.75971 9.87658 3.9375 9.44736 3.9375 8.9998C3.9375 8.55225 3.75971 8.12303 3.44324 7.80656C3.12677 7.49009 2.69755 7.3123 2.25 7.3123V7.3123ZM10.35 4.2748H3.6V6.2782C4.10707 6.5295 4.53384 6.91746 4.83222 7.39834C5.13059 7.87921 5.28869 8.43388 5.28869 8.9998C5.28869 9.56573 5.13059 10.1204 4.83222 10.6013C4.53384 11.0821 4.10707 11.4701 3.6 11.7214V13.7248H10.35V4.2748ZM11.7 4.2748V13.7248H14.4V11.7214C13.8929 11.4701 13.4662 11.0821 13.1678 10.6013C12.8694 10.1204 12.7113 9.56573 12.7113 8.9998C12.7113 8.43388 12.8694 7.87921 13.1678 7.39834C13.4662 6.91746 13.8929 6.5295 14.4 6.2782V4.2748H11.7Z" fill="#C8124B"></path></svg>