<svg xmlns="http://www.w3.org/2000/svg" width="24" height="24" viewBox="0 0 24 24" fill="none"><path d="M20.1001 13.1178V19.2H21.0001V21H3.0001V19.2H3.9001V13.1178C3.34603 12.748 2.89184 12.2471 2.57784 11.6596C2.26383 11.0721 2.09973 10.4161 2.1001 9.75C2.1001 9.0057 2.3017 8.2884 2.6698 7.6773L5.1106 3.45C5.18959 3.31319 5.3032 3.19957 5.44001 3.12058C5.57682 3.04159 5.73202 3 5.89 3H18.1111C18.2691 3 18.4243 3.04159 18.5611 3.12058C18.6979 3.19957 18.8115 3.31319 18.8905 3.45L21.3223 7.6638C21.8592 8.55559 22.0318 9.61998 21.8042 10.6357C21.5765 11.6515 20.9662 12.5404 20.1001 13.1178V13.1178ZM18.3001 13.7748C17.6813 13.8442 17.0548 13.7699 16.4694 13.5576C15.884 13.3453 15.3556 13.0008 14.9251 12.5508C14.5473 12.946 14.0933 13.2605 13.5906 13.4753C13.0879 13.6902 12.5468 13.8009 12.0001 13.8009C11.4535 13.8012 10.9125 13.6907 10.4098 13.4762C9.9071 13.2616 9.45306 12.9474 9.0751 12.5526C8.64456 13.0024 8.11603 13.3468 7.53066 13.5589C6.94528 13.771 6.31884 13.8452 5.7001 13.7757V19.2H18.3001V13.7757V13.7748ZM6.4102 4.8L4.2205 8.5917C4.00772 9.11743 4.00133 9.70412 4.20262 10.2344C4.4039 10.7646 4.79801 11.1993 5.30606 11.4514C5.81411 11.7034 6.39863 11.7544 6.94262 11.5939C7.48661 11.4335 7.94995 11.0735 8.2399 10.5861C8.5414 9.8328 9.6079 9.8328 9.9103 10.5861C10.0771 11.0041 10.3653 11.3624 10.7379 11.6149C11.1104 11.8673 11.5501 12.0023 12.0001 12.0023C12.4501 12.0023 12.8898 11.8673 13.2623 11.6149C13.6349 11.3624 13.9231 11.0041 14.0899 10.5861C14.3914 9.8328 15.4579 9.8328 15.7603 10.5861C15.8771 10.8736 16.0521 11.1338 16.2743 11.3504C16.4965 11.5671 16.7612 11.7354 17.0516 11.8448C17.342 11.9542 17.6518 12.0023 17.9617 11.9862C18.2717 11.9701 18.5749 11.89 18.8523 11.7511C19.1298 11.6121 19.3755 11.4173 19.5741 11.1788C19.7726 10.9403 19.9197 10.6633 20.006 10.3652C20.0924 10.0671 20.1161 9.75444 20.0758 9.44675C20.0354 9.13906 19.9319 8.84304 19.7716 8.5773L17.5891 4.8H6.4111H6.4102Z" fill="#0E121B"></path></svg>