<svg xmlns="http://www.w3.org/2000/svg" width="24" height="24" viewBox="0 0 24 24" fill="none"><path d="M11.9999 2.1001L19.3952 3.7435C19.8065 3.8353 20.0999 4.1998 20.0999 4.6219V13.6102C20.0999 15.4156 19.1972 17.1022 17.6951 18.103L11.9999 21.9001L6.3047 18.103C4.8017 17.1013 3.8999 15.4156 3.8999 13.6111V4.6219C3.8999 4.1998 4.1933 3.8353 4.6046 3.7435L11.9999 2.1001ZM11.9999 3.9442L5.6999 5.3437V13.6102C5.6999 14.8135 6.3011 15.9376 7.3028 16.6054L11.9999 19.7374L16.697 16.6054C17.6987 15.9376 18.2999 14.8144 18.2999 13.6111V5.3437L11.9999 3.9451V3.9442ZM16.0067 8.5999L17.2802 9.8725L11.5526 15.6001L7.7339 11.7814L9.0065 10.5088L11.5517 13.054L16.0067 8.599V8.5999Z" fill="#0E121B"></path></svg>